<?xml version="1.0" encoding="UTF-8"?>
<svg version="1.1" xmlns="http://www.w3.org/2000/svg" width="2357" height="2357">
<path d="M0 0 C777.81 0 1555.62 0 2357 0 C2357 777.81 2357 1555.62 2357 2357 C1579.19 2357 801.38 2357 0 2357 C0 1579.19 0 801.38 0 0 Z " fill="#04151D" transform="translate(0,0)"/>
<path d="M0 0 C50.82 0 101.64 0 154 0 C154 269.94 154 539.88 154 818 C295.57 818 437.14 818 583 818 C583 855.95 583 893.9 583 933 C390.61 933 198.22 933 0 933 C0 625.11 0 317.22 0 0 Z " fill="#68A2C2" transform="translate(635,695)"/>
<path d="M0 0 C51.15 0 102.3 0 155 0 C155 307.89 155 615.78 155 933 C103.85 933 52.7 933 0 933 C0 625.11 0 317.22 0 0 Z " fill="#1E5E74" transform="translate(1269,695)"/>
<path d="M0 0 C124.74 0 249.48 0 378 0 C378 38.28 378 76.56 378 116 C253.26 116 128.52 116 0 116 C0 77.72 0 39.44 0 0 Z " fill="#1E5E74" transform="translate(1475,695)"/>
<path d="M0 0 C111.87 0 223.74 0 339 0 C339 34.32 339 68.64 339 104 C227.13 104 115.26 104 0 104 C0 69.68 0 35.36 0 0 Z " fill="#1E5E74" transform="translate(1475,1104)"/>
<path d="M0 0 C124.74 0 249.48 0 378 0 C378 38.28 378 76.56 378 116 C253.26 116 128.52 116 0 116 C0 77.72 0 39.44 0 0 Z M2 3 C1.55154756 5.0096403 1.55154756 5.0096403 1.63250732 7.3651123 C1.62693817 8.28211411 1.62136902 9.19911591 1.6156311 10.14390564 C1.62484589 11.1528035 1.63406067 12.16170135 1.64355469 13.20117188 C1.64151031 14.26139053 1.63946594 15.32160919 1.63735962 16.41395569 C1.6343418 19.93239363 1.65285899 23.45036745 1.671875 26.96875 C1.67493096 29.40490604 1.67680832 31.84106383 1.67755127 34.27722168 C1.68216064 39.3884955 1.69661095 44.49961233 1.71875 49.61083984 C1.74703282 56.17520143 1.75796078 62.73943917 1.7624321 69.3038559 C1.76658176 74.33601124 1.77639545 79.36814133 1.78830719 84.40028381 C1.79401992 86.82129208 1.79877529 89.24230279 1.80257416 91.66331482 C1.80942092 95.04186302 1.82304591 98.42031155 1.83886719 101.79882812 C1.83998505 102.80772598 1.84110291 103.81662384 1.84225464 104.85609436 C1.84796478 105.77309616 1.85367493 106.69009796 1.85955811 107.6348877 C1.86253277 108.43424995 1.86550743 109.23361221 1.86857224 110.05719757 C1.88001473 112.08155035 1.88001473 112.08155035 3 114 C125.76 114 248.52 114 375 114 C376.80602453 107.96042165 376.80602453 107.96042165 377.24050903 102.13404846 C377.24325836 101.23252548 377.24600769 100.3310025 377.24884033 99.40216064 C377.24164978 98.43614929 377.23445923 97.47013794 377.22705078 96.47485352 C377.22748886 94.92250252 377.22748886 94.92250252 377.22793579 93.33879089 C377.22654811 89.93540922 377.21101321 86.53224945 377.1953125 83.12890625 C377.19158038 80.76236592 377.18873435 78.39582404 377.18673706 76.02928162 C377.17911632 69.81340233 377.15948114 63.59761713 377.1373291 57.3817749 C377.11683712 51.03382642 377.10772817 44.68586268 377.09765625 38.33789062 C377.07623384 25.89188584 377.04211666 13.44595076 377 1 C329.66046895 0.95426019 282.32094022 0.91899994 234.98139144 0.89786934 C229.39734361 0.89536781 223.81329582 0.89277918 218.22924805 0.89013672 C217.11752628 0.8896121 216.00580452 0.88908748 214.86039422 0.88854696 C196.84020493 0.87983533 178.82002835 0.8640612 160.79984661 0.84569441 C142.32074014 0.82701641 123.84164034 0.81588773 105.36252481 0.81182301 C93.95241601 0.80907358 82.54234314 0.80037795 71.1322454 0.78416707 C63.31660684 0.77362609 55.50098696 0.7703928 47.6853418 0.77299725 C43.17062642 0.77428305 38.65597398 0.77225969 34.14126968 0.76158905 C30.01278558 0.75190208 25.88440713 0.75133523 21.7559183 0.75820221 C20.25789156 0.75905172 18.75985839 0.75647615 17.26184442 0.75023364 C15.23417999 0.74227144 13.20647592 0.74770185 11.17880535 0.75390434 C9.48544254 0.75276518 9.48544254 0.75276518 7.75787038 0.75160301 C4.78549345 0.79790887 4.78549345 0.79790887 2 3 Z " fill="#1F4D5D" transform="translate(1475,695)"/>
<path d="M0 0 C0.33 0 0.66 0 1 0 C1 33.99 1 67.98 1 103 C111.22 103 221.44 103 335 103 C335.33 100.69 335.66 98.38 336 96 C336.33 95.67 336.66 95.34 337 95 C337.12531154 92.0482962 337.1861113 89.11886478 337.20532227 86.16577148 C337.21522186 85.23903625 337.22512146 84.31230103 337.23532104 83.35748291 C337.26703701 80.27871296 337.2917332 77.19992755 337.31640625 74.12109375 C337.33696707 71.99259529 337.3579633 69.86410099 337.37937927 67.73561096 C337.43469004 62.12142296 337.48405947 56.50719757 337.53222656 50.89294434 C337.58237601 45.1688299 337.63809622 39.44477007 337.69335938 33.72070312 C337.80105102 22.48051534 337.90247138 11.24028024 338 0 C338.33 0 338.66 0 339 0 C339 34.32 339 68.64 339 104 C227.13 104 115.26 104 0 104 C0 69.68 0 35.36 0 0 Z " fill="#1C4D5E" transform="translate(1475,1104)"/>
</svg>
